
<svg xmlns="http://www.w3.org/2000/svg" version="1.1" xmlns:xlink="http://www.w3.org/1999/xlink" preserveAspectRatio="none" x="0px" y="0px" width="1280px" height="720px" viewBox="0 0 1280 720">
<defs>
<image id="______________________1" x="0" y="0" width="736" height="736" xlink:href="./изображения/______________________1.png"/>

<image id="______________________9" x="0" y="0" width="1200" height="1200" xlink:href="./изображения/______________________9.png"/>

<image id="______________________10" x="0" y="0" width="1200" height="1200" xlink:href="./изображения/______________________10.png"/>

<image id="______________________3" x="0" y="0" width="600" height="600" xlink:href="./изображения/______________________3.png"/>

<image id="______________________2" x="0" y="0" width="880" height="590" xlink:href="./изображения/______________________2.png"/>
</defs>

<g transform="matrix( 1, 0, 0, 1, 1323.9,493.6) ">
<g transform="matrix( -0.4902191162109375, 0, 0, 0.4902191162109375, 180.4,-180.4) ">
<use xlink:href="#______________________1"/>
</g>
</g>

<g transform="matrix( 0.26348876953125, 0, 0, 0.1625823974609375, 0,0) ">
<use xlink:href="#______________________9"/>
</g>

<g transform="matrix( -0.126739501953125, 0, 0, 0.15606689453125, 468.1,54) ">
<use xlink:href="#______________________10"/>
</g>

<g transform="matrix( 0.221588134765625, 0, 0, 0.19708251953125, 830,5) ">
<use xlink:href="#______________________9"/>
</g>

<g transform="matrix( 0, 0.2308349609375, -0.2308349609375, 0, 722.5,519) ">
<use xlink:href="#______________________3"/>
</g>

<g transform="matrix( 1, 0, 0, 1, -18,475.2) ">
<g transform="matrix( -0.52947998046875, 0, 0, 0.52947998046875, 232.95,-156.2) ">
<use xlink:href="#______________________2"/>
</g>
</g>
</svg>
